<?xml version="1.0" encoding="UTF-8" standalone="no"?>
<!-- Created with Inkscape (http://www.inkscape.org/) -->

<svg
   width="210mm"
   height="297mm"
   viewBox="0 0 210 297"
   version="1.1"
   id="svg5"
   inkscape:version="1.2.2 (b0a8486541, 2022-12-01)"
   sodipodi:docname="bands.svg"
   xmlns:inkscape="http://www.inkscape.org/namespaces/inkscape"
   xmlns:sodipodi="http://sodipodi.sourceforge.net/DTD/sodipodi-0.dtd"
   xmlns="http://www.w3.org/2000/svg"
   xmlns:svg="http://www.w3.org/2000/svg">
  <sodipodi:namedview
     id="namedview7"
     pagecolor="#505050"
     bordercolor="#eeeeee"
     borderopacity="1"
     inkscape:showpageshadow="0"
     inkscape:pageopacity="0"
     inkscape:pagecheckerboard="0"
     inkscape:deskcolor="#505050"
     inkscape:document-units="mm"
     showgrid="false"
     inkscape:zoom="0.6251321"
     inkscape:cx="340.12525"
     inkscape:cy="1229.0647"
     inkscape:window-width="1920"
     inkscape:window-height="1010"
     inkscape:window-x="0"
     inkscape:window-y="0"
     inkscape:window-maximized="1"
     inkscape:current-layer="layer1"
     inkscape:rotation="-1"
     showguides="false" />
  <defs
     id="defs2">
    <rect
       x="-414.11002"
       y="917.67597"
       width="838.47433"
       height="392.04987"
       id="rect8131" />
    <rect
       x="-290.03693"
       y="1053.1434"
       width="593.02305"
       height="132.4903"
       id="rect2888" />
    <rect
       x="-130.08655"
       y="1095.4361"
       width="279.63444"
       height="50.884226"
       id="rect1992" />
  </defs>
  <g
     inkscape:label="Capa 1"
     inkscape:groupmode="layer"
     id="layer1">
    <path
       id="path8894"
       style="font-size:64px;font-family:Cantarell;-inkscape-font-specification:Cantarell;white-space:pre;fill:none;stroke:#000000;stroke-width:3.24754"
       d="m 109.71221,299.48404 h 3.11655 l 0.48696,-30.61582 h -4.09047 z m 1.60697,13.10333 c 1.85045,0 3.11655,-1.67673 3.11655,-3.97447 0,-2.29774 -1.2661,-3.97447 -3.11655,-3.97447 -1.85045,0 -3.11655,1.67673 -3.11655,3.97447 0,2.29774 1.2661,3.97447 3.11655,3.97447 z M 96.953877,299.48404 h 3.116553 l 0.48696,-30.61582 h -4.090473 z m 1.60697,13.10333 c 1.850453,0 3.116553,-1.67673 3.116553,-3.97447 0,-2.29774 -1.2661,-3.97447 -3.116553,-3.97447 -1.85045,0 -3.11655,1.67673 -3.11655,3.97447 0,2.29774 1.2661,3.97447 3.11655,3.97447 z M 84.195552,299.48404 h 3.116549 l 0.48696,-30.61582 h -4.09047 z m 1.60697,13.10333 c 1.850451,0 3.116549,-1.67673 3.116549,-3.97447 0,-2.29774 -1.266098,-3.97447 -3.116549,-3.97447 -1.85045,0 -3.116548,1.67673 -3.116548,3.97447 0,2.29774 1.266098,3.97447 3.116548,3.97447 z m -17.822801,0 c 5.794833,0 9.349646,-3.47766 9.349646,-9.00466 0,-10.99188 -14.024469,-6.89321 -14.024469,-13.66223 0,-2.60824 2.191323,-4.28497 5.697441,-4.28497 1.996539,0 4.33395,0.55891 6.330489,1.42832 l 0.925226,-4.03657 c -1.996539,-1.05571 -4.382647,-1.61462 -6.866147,-1.61462 -6.087009,0 -9.982695,3.41555 -9.982695,9.06675 0,10.74348 13.975773,6.27221 13.975773,13.60013 0,2.73245 -1.899147,4.28497 -5.113088,4.28497 -2.483499,0 -5.794832,-0.86941 -8.278332,-2.23563 l -0.925226,4.03657 c 2.678284,1.55252 5.940921,2.42194 8.911382,2.42194 z m -16.654058,-0.31051 c 1.606971,0 3.213941,-0.49681 4.333951,-1.11782 l -0.876529,-3.60186 c -0.730441,0.43471 -1.801755,0.68311 -2.629588,0.68311 -2.434804,0 -4.041775,-1.98723 -4.041775,-4.96808 v -17.07779 h 6.427882 v -4.16077 h -6.427882 v -8.75625 h -3.895686 v 8.75625 h -3.165244 v 4.16077 h 3.165244 v 17.7609 c 0,4.96808 2.824373,8.32154 7.109627,8.32154 z m -26.782803,0.31051 c 2.970461,0 5.502657,-1.24202 7.401804,-3.41556 l 0.925225,2.79455 h 2.72698 v -19.43763 c 0,-7.14163 -3.311333,-11.11609 -9.447038,-11.11609 -3.067853,0 -6.379186,1.05571 -8.911382,2.85664 l 0.973921,3.66397 c 2.434804,-1.36623 4.869608,-2.04934 7.158323,-2.04934 4.187863,0 6.33049,2.23564 6.33049,6.64482 v 1.98723 c -10.518352,0.1242 -15.095783,2.91875 -15.095783,9.31516 0,5.34069 3.116549,8.75625 7.93746,8.75625 z m -4.041774,-9.31516 c 0,-3.72607 3.311333,-5.27859 11.200097,-5.34069 v 7.32792 c -1.460882,1.86303 -3.603509,2.98085 -6.038313,2.98085 -3.116549,0 -5.161784,-1.98723 -5.161784,-4.96808 z M 0,311.96636 h 3.8956858 v -21.36277 c 1.509579,-2.60824 3.895686,-4.16077 6.5252742,-4.16077 0.925226,0 1.801755,0.1863 2.580892,0.55891 l 0.973922,-4.59548 c -1.022618,-0.4347 -2.045235,-0.68311 -3.116549,-0.68311 -2.8243722,0 -5.4539602,1.73883 -7.2070192,4.65758 l -0.438265,-4.34707 H 0 Z m -18.796669,0.62101 c 2.72698,0 5.064392,-1.17992 6.81745,-3.29136 v 2.54614 c 0,6.64482 -2.337411,9.93617 -7.012235,9.93617 -2.093931,0 -4.626127,-0.68311 -6.81745,-1.86303 l -0.827833,3.78817 c 2.434803,1.55252 4.918303,2.35984 7.353107,2.35984 6.768754,0 11.2000968,-5.96171 11.2000968,-14.96636 v -29.06329 h -2.7269798 l -0.730441,2.54614 c -1.704363,-2.04934 -4.041774,-3.16715 -6.768754,-3.16715 -6.525275,0 -10.956617,6.2722 -10.956617,15.77366 0,9.25306 4.187862,15.40107 10.469656,15.40107 z m -6.57397,-15.89787 c 0,-6.58272 2.72698,-10.92979 7.255715,-10.92979 2.629588,0 4.723519,1.36622 6.135705,3.72606 v 15.33896 c -1.314794,2.17354 -3.311333,3.41556 -5.697441,3.41556 -4.674823,0 -7.693979,-4.65758 -7.693979,-11.55079 z m -29.996752,15.27686 h 3.895686 v -23.4121 c 1.801755,-1.80093 3.944382,-2.79455 6.233098,-2.79455 3.798293,0 5.892225,2.73245 5.892225,7.57633 v 18.63032 h 3.895686 v -19.62394 c 0,-6.64481 -3.457422,-10.92978 -8.716598,-10.92978 -2.678284,0 -5.356568,1.17992 -7.596588,3.29135 l -0.876529,-2.67034 h -2.72698 z m -18.163613,0.62101 c 6.914842,0 11.589666,-6.39641 11.589666,-15.95998 0,-9.25305 -4.333951,-15.21475 -11.005313,-15.21475 -6.914843,0 -11.54097,6.3343 -11.54097,15.89787 0,9.25305 4.285255,15.27686 10.956617,15.27686 z m 0.535657,-4.34708 c -4.528735,0 -7.596588,-4.65758 -7.596588,-11.55079 0,-6.64482 2.775676,-10.92979 7.109627,-10.92979 4.528735,0 7.645284,4.71968 7.645284,11.5508 0,6.58271 -2.824373,10.92978 -7.158323,10.92978 z m -26.149808,4.34708 c 3.262637,0 6.671363,-0.93152 9.885303,-2.73245 l -0.925225,-3.78816 c -2.434804,1.24202 -5.45396,1.98723 -8.034852,1.98723 -8.083561,0 -13.440121,-7.32793 -13.440121,-18.31981 0,-10.49508 4.91831,-16.89149 13.050552,-16.89149 2.72698,0 5.794825,0.74521 8.375717,1.98723 l 1.168706,-3.85026 c -2.4835,-1.67673 -5.989609,-2.67035 -9.300943,-2.67035 -10.469652,0 -17.433192,9.06676 -17.433192,22.60479 0,12.97912 6.67136,21.67327 16.654055,21.67327 z" />
  </g>
</svg>
