<?xml version="1.0" encoding="UTF-8" standalone="no"?>
<!-- Created with Inkscape (http://www.inkscape.org/) -->

<svg
   width="210mm"
   height="297mm"
   viewBox="0 0 210 297"
   version="1.1"
   id="svg5"
   inkscape:version="1.2.2 (b0a8486541, 2022-12-01)"
   sodipodi:docname="welldone.svg"
   xmlns:inkscape="http://www.inkscape.org/namespaces/inkscape"
   xmlns:sodipodi="http://sodipodi.sourceforge.net/DTD/sodipodi-0.dtd"
   xmlns="http://www.w3.org/2000/svg"
   xmlns:svg="http://www.w3.org/2000/svg">
  <sodipodi:namedview
     id="namedview7"
     pagecolor="#505050"
     bordercolor="#eeeeee"
     borderopacity="1"
     inkscape:showpageshadow="0"
     inkscape:pageopacity="0"
     inkscape:pagecheckerboard="0"
     inkscape:deskcolor="#505050"
     inkscape:document-units="mm"
     showgrid="false"
     inkscape:zoom="0.6251321"
     inkscape:cx="341.69675"
     inkscape:cy="1230.6921"
     inkscape:window-width="1920"
     inkscape:window-height="1010"
     inkscape:window-x="0"
     inkscape:window-y="0"
     inkscape:window-maximized="1"
     inkscape:current-layer="layer1"
     inkscape:rotation="-1"
     showguides="false" />
  <defs
     id="defs2">
    <rect
       x="-443.80339"
       y="1321.4953"
       width="882.45347"
       height="231.06826"
       id="rect995" />
    <rect
       x="-414.11002"
       y="917.67597"
       width="838.47433"
       height="392.04987"
       id="rect8131" />
    <rect
       x="-290.03693"
       y="1053.1434"
       width="593.02305"
       height="132.4903"
       id="rect2888" />
    <rect
       x="-130.08655"
       y="1095.4361"
       width="279.63444"
       height="50.884226"
       id="rect1992" />
  </defs>
  <g
     inkscape:label="Capa 1"
     inkscape:groupmode="layer"
     id="layer1">
    <path
       id="path1077"
       style="font-size:64px;font-family:Cantarell;-inkscape-font-specification:Cantarell;white-space:pre;fill:none;stroke:#000000;stroke-width:2.90526"
       d="m 110.81325,305.0435 h 3.14853 l 0.49195,-24.25349 h -4.13243 z m 1.62346,10.38029 c 1.86944,0 3.14853,-1.32828 3.14853,-3.14853 0,-1.82024 -1.27909,-3.14852 -3.14853,-3.14852 -1.86944,0 -3.14852,1.32828 -3.14852,3.14852 0,1.82025 1.27908,3.14853 3.14852,3.14853 z m -17.66125,0 c 2.705764,0 5.65751,-0.63954 7.77292,-1.77105 l -0.88552,-2.85335 c -1.820242,0.88553 -4.13244,1.42668 -6.19866,1.42668 -5.017962,0 -8.166487,-3.00094 -8.756836,-8.0681 h 16.529756 c 0.0984,-0.73793 0.19678,-2.45978 0.19678,-3.3945 0,-5.95268 -3.935652,-10.03592 -9.789941,-10.03592 -6.592225,0 -11.069034,5.16554 -11.069034,12.44651 0,7.57614 4.673592,12.24973 12.200535,12.24973 z m -1.426675,-21.35094 c 4.034047,0 6.395441,2.60738 6.395441,7.13338 H 86.658169 c 0.34437,-4.6244 2.705763,-7.13338 6.690616,-7.13338 z M 56.20605,314.93183 h 3.935656 v -18.54678 c 1.820241,-1.42667 3.984853,-2.2138 6.297051,-2.2138 3.837265,0 5.95268,2.16461 5.95268,6.00187 v 14.75871 h 3.935656 v -15.54584 c 0,-5.26394 -3.492895,-8.65844 -8.806031,-8.65844 -2.705764,0 -5.411527,0.93471 -7.67453,2.60737 L 58.961009,291.2195 H 56.20605 Z m -18.349968,0.49196 c 6.985791,0 11.708578,-5.06716 11.708578,-12.6433 0,-7.33016 -4.378417,-12.05294 -11.118229,-12.05294 -6.98579,0 -11.659382,5.01796 -11.659382,12.5941 0,7.33016 4.329222,12.10214 11.069033,12.10214 z m 0.541153,-3.4437 c -4.5752,0 -7.67453,-3.68968 -7.67453,-9.1504 0,-5.26394 2.804155,-8.65844 7.182573,-8.65844 4.575201,0 7.723726,3.73887 7.723726,9.1504 0,5.21474 -2.853351,8.65844 -7.231769,8.65844 z m -29.0746464,3.4437 c 2.8533514,0 5.2639404,-1.03311 7.0841814,-2.80416 l 0.983914,2.3122 h 2.75496 v -36.35562 h -3.935657 v 14.26675 c -1.672654,-1.37748 -3.837265,-2.11541 -6.3462456,-2.11541 -6.690616,0 -11.1182295,5.01796 -11.1182295,12.5449 0,7.28097 4.2308307,12.15134 10.5770767,12.15134 z m -6.6414203,-12.5941 c 0,-5.21475 2.7549596,-8.65844 7.3301597,-8.65844 2.656569,0 4.771984,1.0823 6.198659,2.95174 v 12.15134 c -1.328284,1.72185 -3.345308,2.70576 -5.755897,2.70576 -4.7227879,0 -7.7729217,-3.68968 -7.7729217,-9.1504 z m -21.5476803,12.39732 c 1.279088,0 2.804155,-0.29518 3.738873,-0.78713 l -0.885522,-2.75496 c -0.590349,0.24598 -1.131502,0.39356 -1.72185,0.39356 -1.672654,0 -2.558177,-1.1315 -2.558177,-2.95174 v -30.55053 h -3.935656 v 31.04249 c 0,3.3945 2.115415,5.60831 5.362332,5.60831 z m -13.676399,0 c 1.279089,0 2.804155,-0.29518 3.738874,-0.78713 l -0.885523,-2.75496 c -0.590348,0.24598 -1.131501,0.39356 -1.72185,0.39356 -1.672654,0 -2.558176,-1.1315 -2.558176,-2.95174 v -30.55053 h -3.935657 v 31.04249 c 0,3.3945 2.115416,5.60831 5.362332,5.60831 z m -20.662188,0.19678 c 2.705763,0 5.657506,-0.63954 7.772921,-1.77105 l -0.885523,-2.85335 c -1.820241,0.88553 -4.132439,1.42668 -6.198659,1.42668 -5.017962,0 -8.166487,-3.00094 -8.756835,-8.0681 h 16.529757 c 0.09839,-0.73793 0.196783,-2.45978 0.196783,-3.3945 0,-5.95268 -3.935657,-10.03592 -9.789946,-10.03592 -6.592224,0 -11.069033,5.16554 -11.069033,12.44651 0,7.57614 4.673592,12.24973 12.200535,12.24973 z m -1.426676,-21.35094 c 4.034048,0 6.395442,2.60738 6.395442,7.13338 h -13.086058 c 0.34437,-4.6244 2.705764,-7.13338 6.690616,-7.13338 z m -50.671555,20.85898 h 4.08324 l 9.052015,-28.92707 9.543967,28.92707 h 3.935656 l 10.134315,-34.14182 h -4.083243 l -7.920509,28.53351 -9.101205,-28.28753 h -4.575201 l -8.855225,28.58271 -7.77292,-28.82869 h -4.72279 z" />
  </g>
</svg>
